<svg fill="none" height="143" viewBox="0 0 192 143" width="192" xmlns="http://www.w3.org/2000/svg"><path d="m92.6842 44.1231 3.3287 9.849 3.3055-9.8568c8.4186-25.1045 24.4416-40.6153 41.6086-40.6153 12.47 0 24.281 8.1129 33.153 22.3606 8.842 14.1979 14.42 34.0345 14.42 56.1394 0 22.105-5.578 41.941-14.42 56.139-8.872 14.248-20.683 22.361-33.153 22.361-17.114 0-33.139-15.556-41.6112-40.623l-3.3287-9.849-3.3055 9.857c-8.4188 25.104-24.4417 40.615-41.6082 40.615-12.4448 0-24.2563-8.112-33.1357-22.362-8.84745-14.198-14.4377-34.035-14.4377-56.138 0-22.1049 5.57845-41.9415 14.4195-56.1394 8.8721-14.2477 20.6831-22.3606 33.1539-22.3606 17.1133 0 33.139 15.5555 41.6108 40.6231z" fill="#1e293b" stroke="#000" stroke-width="7"/></svg>