<svg width="52" height="52" viewBox="0 0 52 52" fill="none" xmlns="http://www.w3.org/2000/svg">
<path d="M30.1453 11.2844L30.15 11.2816L43.7076 3.04329L43.7087 3.04264C46.8053 1.15886 50.3511 4.7047 48.4674 7.80133L48.4667 7.8024L40.2301 21.3573C38.5856 24.0559 38.5908 27.4417 40.2256 30.1453L40.2284 30.15L48.4667 43.7076L48.4674 43.7087C50.3511 46.8053 46.8053 50.3511 43.7087 48.4674L43.7076 48.4667L30.1527 40.2301C27.4541 38.5856 24.0683 38.5908 21.3647 40.2256L21.36 40.2284L7.80239 48.4667L7.80133 48.4674C4.7047 50.3511 1.15886 46.8053 3.04264 43.7087L3.04329 43.7076L11.2799 30.1527C11.2803 30.1522 11.2806 30.1516 11.2809 30.1511C12.9244 27.4527 12.9188 24.0678 11.2844 21.3647L11.2816 21.36L3.04329 7.8024L3.04264 7.80133C1.15886 4.7047 4.7047 1.15886 7.80133 3.04264L7.80239 3.04329L21.3573 11.2799C21.3578 11.2802 21.3583 11.2805 21.3588 11.2808C24.0572 12.9244 27.4422 12.9189 30.1453 11.2844Z" fill="#1E293B" stroke="black" stroke-width="5"/>
</svg>
