<svg width="183" height="183" viewBox="0 0 183 183" fill="none" xmlns="http://www.w3.org/2000/svg">
<path d="M179.5 91.5001L179.5 91.5118C179.577 114.628 161.004 133.51 137.857 133.75H137.25H133.738L133.75 137.262C133.827 160.416 115.217 179.26 92.1066 179.5H91.5H90.8934C67.7833 179.26 49.1732 160.416 49.2501 137.262L49.2618 133.75H46.3751H46.3739H46.3727H46.3715H46.3702H46.369H46.3678H46.3666H46.3654H46.3641H46.3629H46.3617H46.3605H46.3593H46.358H46.3568H46.3556H46.3544H46.3532H46.3519H46.3507H46.3495H46.3483H46.347H46.3458H46.3446H46.3434H46.3422H46.3409H46.3397H46.3385H46.3373H46.3361H46.3348H46.3336H46.3324H46.3312H46.33H46.3287H46.3275H46.3263H46.3251H46.3239H46.3226H46.3214H46.3202H46.319H46.3178H46.3165H46.3153H46.3141H46.3129H46.3116H46.3104H46.3092H46.308H46.3068H46.3055H46.3043H46.3031H46.3019H46.3007H46.2994H46.2982H46.297H46.2958H46.2946H46.2933H46.2921H46.2909H46.2897H46.2885H46.2872H46.286H46.2848H46.2836H46.2824H46.2811H46.2799H46.2787H46.2775H46.2762H46.275H46.2738H46.2726H46.2714H46.2701H46.2689H46.2677H46.2665H46.2653H46.264H46.2628H46.2616H46.2604H46.2592H46.2579H46.2567H46.2555H46.2543H46.2531H46.2518H46.2506H46.2494H46.2482H46.247H46.2457H46.2445H46.2433H46.2421H46.2408H46.2396H46.2384H46.2372H46.236H46.2347H46.2335H46.2323H46.2311H46.2299H46.2286H46.2274H46.2262H46.225H46.2238H46.2225H46.2213H46.2201H46.2189H46.2177H46.2164H46.2152H46.214H46.2128H46.2116H46.2103H46.2091H46.2079H46.2067H46.2054H46.2042H46.203H46.2018H46.2006H46.1993H46.1981H46.1969H46.1957H46.1945H46.1932H46.192H46.1908H46.1896H46.1884H46.1871H46.1859H46.1847H46.1835H46.1823H46.181H46.1798H46.1786H46.1774H46.1762H46.1749H46.1737H46.1725H46.1713H46.17H46.1688H46.1676H46.1664H46.1652H46.1639H46.1627H46.1615H46.1603H46.1591H46.1578H46.1566H46.1554H46.1542H46.153H46.1517H46.1505H46.1493H46.1481H46.1469H46.1456H46.1444H46.1432H46.142H46.1408H46.1395H46.1383H46.1371H46.1359H46.1346H46.1334H46.1322H46.131H46.1298H46.1285H46.1273H46.1261H46.1249H46.1237H46.1224H46.1212H46.12H46.1188H46.1176H46.1163H46.1151H46.1139H46.1127H46.1115H46.1102H46.109H46.1078H46.1066H46.1054H46.1041H46.1029H46.1017H46.1005H46.0992H46.098H46.0968H46.0956H46.0944H46.0931H46.0919H46.0907H46.0895H46.0883H46.087H46.0858H46.0846H46.0834H46.0822H46.0809H46.0797H46.0785H46.0773H46.0761H46.0748H46.0736H46.0724H46.0712H46.07H46.0687H46.0675H46.0663H46.0651H46.0638H46.0626H46.0614H46.0602H46.059H46.0577H46.0565H46.0553H46.0541H46.0529H46.0516H46.0504H46.0492H46.048H46.0468H46.0455H46.0443H46.0431H46.0419H46.0407H46.0394H46.0382H46.037H46.0358H46.0345H46.0333H46.0321H46.0309H46.0297H46.0284H46.0272H46.026H46.0248H46.0236H46.0223H46.0211H46.0199H46.0187H46.0175H46.0162H46.015H46.0138H46.0126H46.0114H46.0101H46.0089H46.0077H46.0065H46.0053H46.004H46.0028H46.0016H46.0004H45.9991H45.9979H45.9967H45.9955H45.9943H45.993H45.9918H45.9906H45.9894H45.9882H45.9869H45.9857H45.9845H45.9833H45.9821H45.9808H45.9796H45.9784H45.9772H45.976H45.9747H45.9735H45.9723H45.9711H45.9699H45.9686H45.9674H45.9662H45.965H45.9637H45.9625H45.9613H45.9601H45.9589H45.9576H45.9564H45.9552H45.954H45.9528H45.9515H45.9503H45.9491H45.9479H45.9467H45.9454H45.9442H45.943H45.9418H45.9406H45.9393H45.9381H45.9369H45.9357H45.9345H45.9332H45.932H45.9308H45.9296H45.9283H45.9271H45.9259H45.9247H45.9235H45.9222H45.921H45.9198H45.9186H45.9174H45.9161H45.9149H45.9137H45.9125H45.9113H45.91H45.9088H45.9076H45.9064H45.9052H45.9039H45.9027H45.9015H45.9003H45.8991H45.8978H45.8966H45.8954H45.8942H45.8929H45.8917H45.8905H45.8893H45.8881H45.8868H45.8856H45.8844H45.8832H45.882H45.8807H45.8795H45.8783H45.8771H45.8759H45.8746H45.8734H45.8722H45.871H45.8698H45.8685H45.8673H45.8661H45.8649H45.8637H45.8624H45.8612H45.86H45.8588H45.8575H45.8563H45.8551H45.8539H45.8527H45.8514H45.8502H45.849H45.8478H45.8466H45.8453H45.8441H45.8429H45.8417H45.8405H45.8392H45.838H45.8368H45.8356H45.8344H45.8331H45.8319H45.8307H45.8295H45.8283H45.827H45.8258H45.8246H45.8234H45.8221H45.8209H45.8197H45.8185H45.8173H45.816H45.8148H45.8136H45.8124H45.8112H45.8099H45.8087H45.8075H45.8063H45.8051H45.8038H45.8026H45.8014H45.8002H45.799H45.7977H45.7965H45.7953H45.7941H45.7929H45.7916H45.7904H45.7892H45.788H45.7867H45.7855H45.7843H45.7831H45.7819H45.7806H45.7794H45.7782H45.777H45.7758H45.7745H45.7733H45.7721H45.7709H45.7697H45.7684H45.7672H45.766H45.7648H45.7636H45.7623H45.7611H45.7599H45.7587H45.7575H45.7562H45.755H45.7538H45.7526H45.7513H45.7501H45.1436C22.0355 133.51 3.42332 114.626 3.50026 91.5118V91.5001V90.893C3.74018 67.7831 22.5848 49.1732 45.7385 49.2502L49.2501 49.2618V45.7502V45.1429C49.4901 22.0351 68.3743 3.42332 91.4883 3.50024L91.5 3.50028L91.5117 3.50024C114.628 3.42331 133.51 21.996 133.75 45.1436V45.7502H136.625V49.2502H136.626H136.627H136.629H136.63H136.631H136.632H136.633H136.635H136.636H136.637H136.638H136.64H136.641H136.642H136.643H136.644H136.646H136.647H136.648H136.649H136.65H136.652H136.653H136.654H136.655H136.657H136.658H136.659H136.66H136.661H136.663H136.664H136.665H136.666H136.668H136.669H136.67H136.671H136.672H136.674H136.675H136.676H136.677H136.679H136.68H136.681H136.682H136.683H136.685H136.686H136.687H136.688H136.69H136.691H136.692H136.693H136.694H136.696H136.697H136.698H136.699H136.701H136.702H136.703H136.704H136.705H136.707H136.708H136.709H136.71H136.712H136.713H136.714H136.715H136.716H136.718H136.719H136.72H136.721H136.723H136.724H136.725H136.726H136.727H136.729H136.73H136.731H136.732H136.734H136.735H136.736H136.737H136.738H136.74H136.741H136.742H136.743H136.744H136.746H136.747H136.748H136.749H136.751H136.752H136.753H136.754H136.755H136.757H136.758H136.759H136.76H136.762H136.763H136.764H136.765H136.766H136.768H136.769H136.77H136.771H136.773H136.774H136.775H136.776H136.777H136.779H136.78H136.781H136.782H136.784H136.785H136.786H136.787H136.788H136.79H136.791H136.792H136.793H136.795H136.796H136.797H136.798H136.799H136.801H136.802H136.803H136.804H136.806H136.807H136.808H136.809H136.81H136.812H136.813H136.814H136.815H136.817H136.818H136.819H136.82H136.821H136.823H136.824H136.825H136.826H136.827H136.829H136.83H136.831H136.832H136.834H136.835H136.836H136.837H136.838H136.84H136.841H136.842H136.843H136.845H136.846H136.847H136.848H136.849H136.851H136.852H136.853H136.854H136.856H136.857H136.858H136.859H136.86H136.862H136.863H136.864H136.865H136.867H136.868H136.869H136.87H136.871H136.873H136.874H136.875H136.876H136.878H136.879H136.88H136.881H136.882H136.884H136.885H136.886H136.887H136.889H136.89H136.891H136.892H136.893H136.895H136.896H136.897H136.898H136.9H136.901H136.902H136.903H136.904H136.906H136.907H136.908H136.909H136.911H136.912H136.913H136.914H136.915H136.917H136.918H136.919H136.92H136.921H136.923H136.924H136.925H136.926H136.928H136.929H136.93H136.931H136.932H136.934H136.935H136.936H136.937H136.939H136.94H136.941H136.942H136.943H136.945H136.946H136.947H136.948H136.95H136.951H136.952H136.953H136.954H136.956H136.957H136.958H136.959H136.961H136.962H136.963H136.964H136.965H136.967H136.968H136.969H136.97H136.972H136.973H136.974H136.975H136.976H136.978H136.979H136.98H136.981H136.983H136.984H136.985H136.986H136.987H136.989H136.99H136.991H136.992H136.994H136.995H136.996H136.997H136.998H137H137.001H137.002H137.003H137.005H137.006H137.007H137.008H137.009H137.011H137.012H137.013H137.014H137.015H137.017H137.018H137.019H137.02H137.022H137.023H137.024H137.025H137.026H137.028H137.029H137.03H137.031H137.033H137.034H137.035H137.036H137.037H137.039H137.04H137.041H137.042H137.044H137.045H137.046H137.047H137.048H137.05H137.051H137.052H137.053H137.055H137.056H137.057H137.058H137.059H137.061H137.062H137.063H137.064H137.066H137.067H137.068H137.069H137.07H137.072H137.073H137.074H137.075H137.077H137.078H137.079H137.08H137.081H137.083H137.084H137.085H137.086H137.088H137.089H137.09H137.091H137.092H137.094H137.095H137.096H137.097H137.098H137.1H137.101H137.102H137.103H137.105H137.106H137.107H137.108H137.109H137.111H137.112H137.113H137.114H137.116H137.117H137.118H137.119H137.12H137.122H137.123H137.124H137.125H137.127H137.128H137.129H137.13H137.131H137.133H137.134H137.135H137.136H137.138H137.139H137.14H137.141H137.142H137.144H137.145H137.146H137.147H137.149H137.15H137.151H137.152H137.153H137.155H137.156H137.157H137.158H137.16H137.161H137.162H137.163H137.164H137.166H137.167H137.168H137.169H137.171H137.172H137.173H137.174H137.175H137.177H137.178H137.179H137.18H137.182H137.183H137.184H137.185H137.186H137.188H137.189H137.19H137.191H137.192H137.194H137.195H137.196H137.197H137.199H137.2H137.201H137.202H137.203H137.205H137.206H137.207H137.208H137.21H137.211H137.212H137.213H137.214H137.216H137.217H137.218H137.219H137.221H137.222H137.223H137.224H137.225H137.227H137.228H137.229H137.23H137.232H137.233H137.234H137.235H137.236H137.238H137.239H137.24H137.241H137.243H137.244H137.245H137.246H137.247H137.249L137.25 49.2502L137.553 49.2502C160.573 49.3297 179.261 67.8805 179.5 90.8936L179.5 91.5001ZM60.4584 119.042V122.542H63.9584H119.042H119.083H122.583V119.042V63.9585V60.4585H119.083H63.9584H60.4584V63.9585V119.042Z" fill="#0891B2" stroke="black" stroke-width="7"/>
</svg>
