<svg fill="none" height="248" viewBox="0 0 439 248" width="439" xmlns="http://www.w3.org/2000/svg"><path d="m141.965 0c-14.307 0-27.813 8.61694-38.818 24.5898-11.005-15.97286-24.5112-24.5898-38.8177-24.5898-17.7081 0-34.0155 13.1006-46.121 36.9898-11.70534 23.2588-18.2083 54.1537-18.2083 87.0102 0 32.856 6.50296 63.751 18.3083 87.01 12.1056 23.889 28.413 36.99 46.1211 36.99 14.3065 0 27.8126-8.617 38.8176-24.59 11.005 15.973 24.511 24.59 38.818 24.59 14.306 0 27.812-8.617 38.817-24.59 10.805 15.973 24.311 24.59 38.618 24.59s27.813-8.617 38.818-24.59c11.005 15.973 24.511 24.59 38.817 24.59 14.307 0 27.813-8.617 38.818-24.59 10.905 15.973 24.311 24.59 38.618 24.59 17.708 0 34.015-13.101 46.121-36.99 11.805-23.259 18.308-54.154 18.308-87.01 0-32.8565-6.503-63.7514-18.308-87.0102-12.106-23.8192-28.413-36.9898-46.121-36.9898-14.307 0-27.813 8.61694-38.818 24.5898-11.005-15.97286-24.511-24.5898-38.818-24.5898-14.306 0-27.812 8.61694-38.817 24.5898-11.005-15.97286-24.512-24.5898-38.818-24.5898-14.307 0-27.813 8.61694-38.818 24.5898-10.805-15.97286-24.211-24.5898-38.517-24.5898zm-77.5356 244.497c-15.207 0-30.2138-12.61-41.4189-34.678-11.6053-22.908-18.00822-53.383-18.00822-85.889 0-32.5063 6.40292-62.9809 18.00822-85.8893 11.105-21.9277 26.2119-34.53788 41.4189-34.53788 12.8058 0 25.6116 9.10738 36.0166 25.29038-1.601 2.5921-3.1016 5.3243-4.6023 8.1966-11.8054 23.2588-18.3084 54.1537-18.3084 87.0102 0 32.856 6.503 63.751 18.3084 87.01 1.5007 2.872 3.0013 5.605 4.6023 8.197-10.405 16.253-23.2108 25.29-36.0166 25.29zm38.7176-211.2202c.9 1.5413 1.801 3.1526 2.601 4.8339 11.605 22.9085 18.008 53.3831 18.008 85.8893 0 32.506-6.403 62.981-18.008 85.889-.8 1.682-1.701 3.293-2.601 4.834-.9-1.541-1.801-3.152-2.601-4.834-11.6055-22.908-18.0084-53.383-18.0084-85.889 0-32.5062 6.4029-62.9808 18.0084-85.8893.9-1.6813 1.701-3.2926 2.601-4.8339zm271.424-29.77398c15.207 0 30.213 12.61018 41.419 34.67798 11.605 22.9085 18.008 53.383 18.008 85.8892 0 32.506-6.403 62.981-18.008 85.889-11.106 21.928-26.212 34.538-41.419 34.538-12.806 0-25.612-9.107-36.017-25.29 1.601-2.592 3.102-5.325 4.602-8.197 11.806-23.259 18.309-54.154 18.309-87.01 0-32.8565-6.503-63.7514-18.309-87.0102-1.5-2.8723-3.001-5.6045-4.602-8.1966 10.405-16.2531 23.211-25.29038 36.017-25.29038zm-38.718 211.22018c-.9-1.541-1.801-3.152-2.601-4.834-11.605-22.908-18.008-53.383-18.008-85.889 0-32.5062 6.403-62.9808 18.008-85.8893.8-1.6813 1.701-3.2926 2.601-4.8339.9 1.5413 1.801 3.1526 2.601 4.8339 11.605 22.9085 18.008 53.3831 18.008 85.8893 0 32.506-6.403 62.981-18.008 85.889-.9 1.682-1.701 3.293-2.601 4.834zm-38.818-211.22018c12.806 0 25.612 9.10738 36.017 25.29038-1.601 2.5921-3.102 5.3243-4.602 8.1966-11.806 23.2588-18.309 54.1537-18.309 87.0102 0 32.856 6.503 63.751 18.309 87.01 1.5 2.872 3.001 5.605 4.602 8.197-10.405 16.183-23.211 25.29-36.017 25.29s-25.611-9.107-36.016-25.29c1.601-2.592 3.101-5.325 4.602-8.197 11.805-23.259 18.308-54.154 18.308-87.01 0-32.8565-6.503-63.7514-18.308-87.0102-1.501-2.8723-3.001-5.6045-4.602-8.1966 10.405-16.2531 23.21-25.29038 36.016-25.29038zm-38.717 211.22018c-.901-1.541-1.801-3.152-2.601-4.834-11.606-22.908-18.009-53.383-18.009-85.889 0-32.4362 6.403-62.9808 18.009-85.8893.8-1.6813 1.7-3.2926 2.601-4.8339.9 1.5413 1.8 3.1526 2.601 4.8339 11.605 22.9085 18.008 53.3831 18.008 85.8893 0 32.506-6.403 62.981-18.008 85.889-.901 1.682-1.801 3.293-2.601 4.834zm-38.818-211.22018c12.806 0 25.612 9.10738 36.016 25.29038-1.6 2.5921-3.101 5.3243-4.602 8.1966-11.805 23.2588-18.308 54.1537-18.308 87.0102 0 32.856 6.503 63.751 18.308 87.01 1.501 2.872 3.002 5.605 4.602 8.197-10.404 16.253-23.21 25.29-36.016 25.29s-25.612-9.107-36.016-25.29c1.6-2.592 3.101-5.325 4.602-8.197 11.805-23.259 18.308-54.154 18.308-87.01 0-32.8565-6.503-63.7514-18.308-87.0102-1.501-2.8723-3.002-5.6045-4.602-8.1966 10.404-16.2531 23.21-25.29038 36.016-25.29038zm-38.818 211.22018c-.9-1.541-1.8-3.152-2.601-4.834-11.605-22.908-18.008-53.383-18.008-85.889 0-32.5062 6.403-62.9808 18.008-85.8893.801-1.6813 1.701-3.2926 2.601-4.8339.901 1.5413 1.801 3.1526 2.602 4.8339 11.605 22.9085 18.008 53.3831 18.008 85.8893 0 32.506-6.403 62.981-18.008 85.889-.801 1.682-1.701 3.293-2.602 4.834zm-2.701-185.9998c-1.601 2.592-3.101 5.3243-4.602 8.1966-11.805 23.2587-18.308 54.1536-18.308 87.0102 0 32.856 6.503 63.751 18.308 87.01 1.501 2.872 3.001 5.605 4.602 8.197-10.405 16.183-23.21 25.29-36.016 25.29s-25.612-9.107-36.017-25.29c1.601-2.592 3.102-5.325 4.602-8.197 11.806-23.259 18.309-54.154 18.309-87.01 0-32.8566-6.503-63.7515-18.309-87.0102-1.5-2.8723-3.001-5.6046-4.602-8.1966 10.405-16.1831 23.211-25.29045 36.017-25.29045s25.611 9.10735 36.016 25.29045z" fill="#0891b2"/></svg>