<svg width="161" height="182" viewBox="0 0 161 182" fill="none" xmlns="http://www.w3.org/2000/svg">
<path d="M36.75 20.2273L43.75 20.2416C43.7501 20.2112 43.7502 20.1808 43.7502 20.1504C43.7915 10.964 51.2283 3.54587 60.375 3.54587C69.5473 3.54587 77 11.0054 77 20.2273H80.5H84C84 11.0054 91.4527 3.54587 100.625 3.54587C109.797 3.54587 117.25 11.0054 117.25 20.2273H120.75H124.25C124.25 11.0054 131.703 3.54587 140.875 3.54587C150.047 3.54587 157.5 11.0054 157.5 20.2273V161.819C157.5 171.04 150.047 178.5 140.875 178.5C131.703 178.5 124.25 171.04 124.25 161.819H120.75H117.25C117.25 171.04 109.797 178.5 100.625 178.5C91.4527 178.5 84 171.04 84 161.819H80.5H77C77 171.04 69.5473 178.5 60.375 178.5C51.2027 178.5 43.75 171.04 43.75 161.819H40.25H36.75C36.75 171.04 29.2973 178.5 20.125 178.5C10.9527 178.5 3.5 171.04 3.5 161.819L3.5 20.1815C3.5 10.9595 10.9527 3.5 20.125 3.5C29.2798 3.5 36.7465 10.9231 36.7502 20.1364C36.7501 20.1667 36.75 20.197 36.75 20.2273Z" fill="#0891B2" stroke="black" stroke-width="7"/>
</svg>
