<svg width="175" height="100" viewBox="0 0 175 100" fill="none" xmlns="http://www.w3.org/2000/svg">
<path d="M158.655 12.396L158.66 12.3875L158.664 12.3789C162.418 5.30638 168.45 3.26482 172.5 2.70043V80.1949C171.599 83.2982 170.679 85.6807 169.635 87.6541C164.875 96.5307 156.631 97.5 153.205 97.5C149.779 97.5 141.532 96.5304 136.773 87.6497L136.769 87.6415C135.647 85.5674 134.656 83.0197 133.729 79.6575L131.319 70.9209L128.909 79.6575C127.981 83.0197 126.99 85.5674 125.869 87.6415L125.864 87.6498C121.105 96.5304 112.859 97.5 109.432 97.5C106.006 97.5 97.7592 96.5304 93.0003 87.6497L92.9958 87.6415C91.8743 85.5674 90.8832 83.0197 89.9558 79.6575L87.5458 70.9209L85.1358 79.6575C84.2084 83.0197 83.2172 85.5674 82.0957 87.6415L82.0913 87.6498C77.3324 96.5304 69.0859 97.5 65.6593 97.5C62.2328 97.5 53.9863 96.5304 49.2274 87.6497L49.2229 87.6415C48.1014 85.5674 47.1103 83.0197 46.1829 79.6575L43.7729 70.9209L41.3629 79.6575C40.4355 83.0197 39.4443 85.5674 38.3229 87.6415L38.3184 87.6498C33.5595 96.5304 25.313 97.5 21.8864 97.5C18.4599 97.5 10.2134 96.5304 5.45447 87.6498L5.45449 87.6497L5.45002 87.6415C4.36474 85.6344 3.40154 83.1836 2.5 79.9806L2.5 26.8366L2.5 2.70049C6.51738 3.21886 12.6033 5.24308 16.432 12.3877L16.4364 12.396C17.5579 14.4701 18.549 17.0178 19.4765 20.3799L21.8864 29.1166L24.2964 20.3799C25.2239 17.0178 26.215 14.4701 27.3365 12.396L27.3409 12.3877C32.0998 3.50706 40.3463 2.53748 43.7729 2.53748C47.1994 2.53748 55.446 3.50706 60.2049 12.3877L60.2093 12.396C61.3308 14.4701 62.3219 17.0178 63.2493 20.3799L65.6593 29.1166L68.0693 20.3799C68.9968 17.0178 69.9879 14.4701 71.1094 12.396L71.1138 12.3877C75.8727 3.50706 84.1192 2.53748 87.5458 2.53748C90.9723 2.53748 99.2188 3.50706 103.978 12.3877L103.982 12.396C105.104 14.47 106.095 17.0178 107.022 20.3799L109.432 29.1166L111.842 20.3799C112.77 17.0178 113.761 14.4701 114.882 12.396L114.887 12.3877C119.646 3.50706 127.892 2.53748 131.319 2.53748C134.745 2.53748 142.992 3.50706 147.751 12.3877L147.755 12.396C148.877 14.4701 149.868 17.0178 150.795 20.3799L153.205 29.1166L155.615 20.3799C156.543 17.0178 157.534 14.4701 158.655 12.396ZM134.57 88.8301L134.57 88.8306L134.57 88.8301Z" fill="#0891B2" stroke="black" stroke-width="5"/>
</svg>
