<svg width="276" height="276" viewBox="0 0 276 276" fill="none" xmlns="http://www.w3.org/2000/svg">
<path d="M195.054 173.687L216.386 239.553L158.135 201.836L154.887 199.733L153.119 203.175L121.506 264.734L107.04 197.057L106.231 193.273L102.548 194.456L36.4778 215.667L74.2469 157.647L76.3674 154.39L72.9062 152.621L11.1623 121.066L78.9971 106.716L82.7998 105.911L81.6021 102.214L60.2708 36.3474L118.522 74.0644L121.77 76.1674L123.537 72.7256L155.15 11.1672L169.616 78.8436L170.425 82.6275L174.109 81.4448L240.179 60.2343L202.41 118.253L200.289 121.511L203.75 123.28L265.494 154.835L197.659 169.185L193.857 169.989L195.054 173.687Z" fill="#0891B2" stroke="black" stroke-width="7"/>
</svg>
