<svg width="200" height="113" viewBox="0 0 200 113" fill="none" xmlns="http://www.w3.org/2000/svg">
<path d="M46.5 -86.9937L53.5 -86.9793C53.5001 -87.0161 53.5002 -87.053 53.5002 -87.0898C53.5521 -98.885 63.1517 -108.443 75 -108.443C86.8805 -108.443 96.5 -98.833 96.5 -86.9937H100H103.5C103.5 -98.833 113.12 -108.443 125 -108.443C136.88 -108.443 146.5 -98.833 146.5 -86.9937H150H153.5C153.5 -98.833 163.12 -108.443 175 -108.443C186.88 -108.443 196.5 -98.833 196.5 -86.9937V88.0504C196.5 99.8897 186.88 109.5 175 109.5C163.12 109.5 153.5 99.8897 153.5 88.0504H150H146.5C146.5 99.8897 136.88 109.5 125 109.5C113.12 109.5 103.5 99.8897 103.5 88.0504H100H96.5C96.5 99.8897 86.8805 109.5 75 109.5C63.1195 109.5 53.5 99.8897 53.5 88.0504H50H46.5C46.5 99.8897 36.8805 109.5 25 109.5C13.1195 109.5 3.5 99.8897 3.5 88.0504L3.5 -87.0504C3.5 -98.8897 13.1195 -108.5 25 -108.5C36.8563 -108.5 46.4964 -98.9369 46.5002 -87.1045C46.5001 -87.0676 46.5 -87.0307 46.5 -86.9937Z" fill="#DB2777" stroke="black" stroke-width="7"/>
</svg>
