<svg width="161" height="82" viewBox="0 0 161 82" fill="none" xmlns="http://www.w3.org/2000/svg">
<path d="M36.75 -79.7727L43.75 -79.7584C43.7501 -79.7888 43.7502 -79.8192 43.7502 -79.8496C43.7915 -89.036 51.2283 -96.4541 60.375 -96.4541C69.5473 -96.4541 77 -88.9946 77 -79.7727H80.5H84C84 -88.9946 91.4527 -96.4541 100.625 -96.4541C109.797 -96.4541 117.25 -88.9946 117.25 -79.7727H120.75H124.25C124.25 -88.9946 131.703 -96.4541 140.875 -96.4541C150.047 -96.4541 157.5 -88.9946 157.5 -79.7727V61.8185C157.5 71.0405 150.047 78.5 140.875 78.5C131.703 78.5 124.25 71.0405 124.25 61.8185H120.75H117.25C117.25 71.0405 109.797 78.5 100.625 78.5C91.4527 78.5 84 71.0405 84 61.8185H80.5H77C77 71.0405 69.5473 78.5 60.375 78.5C51.2027 78.5 43.75 71.0405 43.75 61.8185H40.25H36.75C36.75 71.0405 29.2973 78.5 20.125 78.5C10.9527 78.5 3.5 71.0405 3.5 61.8185L3.5 -79.8185C3.5 -89.0405 10.9527 -96.5 20.125 -96.5C29.2798 -96.5 36.7465 -89.0769 36.7502 -79.8636C36.7501 -79.8333 36.75 -79.803 36.75 -79.7727Z" fill="#0891B2" stroke="black" stroke-width="7"/>
</svg>
