<svg width="79" height="79" viewBox="0 0 79 79" fill="none" xmlns="http://www.w3.org/2000/svg">
<path d="M48.882 37.2821L47.1142 39.0499L48.882 40.8177L56.8125 48.7482C59.0356 50.9713 59.0406 54.5878 56.8198 56.8258C54.5945 59.0477 50.9828 59.0467 48.7589 56.8227L40.8283 48.8921L39.0606 47.1244L37.2928 48.8921L29.3622 56.8227C27.1372 59.0477 23.5232 59.0477 21.2982 56.8227C19.0731 54.5977 19.0731 50.9836 21.2982 48.7586L29.2287 40.8281L30.9965 39.0603L29.2287 37.2925L21.2982 29.362C19.0732 27.137 19.0731 23.5229 21.2982 21.2979C23.5252 19.0708 27.1393 19.075 29.3518 21.2875L37.2824 29.2181L39.0502 30.9858L40.8179 29.2181L48.7485 21.2875C50.9735 19.0625 54.5875 19.0625 56.8125 21.2875C59.0376 23.5125 59.0376 27.1266 56.8125 29.3516L48.882 37.2821Z" stroke="#1E293B" stroke-width="5"/>
</svg>
