<svg width="55" height="49" viewBox="0 0 55 49" fill="none" xmlns="http://www.w3.org/2000/svg">
<path d="M39.809 14.4373L39.8087 14.4407C39.6214 16.2351 40.5966 17.9676 42.2545 18.7025C42.2557 18.703 42.2569 18.7036 42.258 18.7041L52.8083 23.42C52.8085 23.4201 52.8086 23.4201 52.8088 23.4202C53.7304 23.8342 53.7304 25.1658 52.8088 25.5798C52.8086 25.5799 52.8085 25.5799 52.8083 25.58L42.258 30.2959C42.2569 30.2964 42.2557 30.297 42.2545 30.2975C40.5966 31.0324 39.6214 32.7649 39.8087 34.5593L39.809 34.5627L41.0493 46.1873C41.0493 46.1875 41.0493 46.1876 41.0493 46.1877C41.1608 47.2525 40.0113 47.8335 39.2547 47.2745C39.2544 47.2742 39.2541 47.274 39.2538 47.2738L29.9516 40.367L29.9458 40.3628C28.4869 39.2903 26.5131 39.2903 25.0542 40.3628L25.0484 40.367L15.7462 47.2738C15.746 47.2739 15.7457 47.2741 15.7455 47.2743C14.989 47.8335 13.8395 47.2528 13.9506 46.1882C13.9507 46.1879 13.9507 46.1876 13.9507 46.1873L15.191 34.5627L15.1913 34.5593C15.3786 32.7647 14.4032 31.0322 12.7451 30.2973C12.7441 30.2969 12.743 30.2964 12.742 30.2959L2.19167 25.58C2.1915 25.5799 2.19133 25.5798 2.19115 25.5798C1.26962 25.1658 1.26962 23.8342 2.19115 23.4202C2.19133 23.4202 2.1915 23.4201 2.19167 23.42L12.742 18.7041C12.743 18.7036 12.7441 18.7031 12.7451 18.7027C14.4032 17.9678 15.3786 16.2353 15.1913 14.4407L15.191 14.4373L13.9507 2.81268C13.9507 2.81238 13.9507 2.81209 13.9506 2.8118C13.8395 1.74721 14.989 1.16644 15.7455 1.72571C15.7457 1.72588 15.746 1.72606 15.7462 1.72624L25.0428 8.62874C25.0439 8.62956 25.045 8.63038 25.046 8.63121C26.5083 9.72542 28.4917 9.72542 29.9539 8.63121C29.955 8.63038 29.9561 8.62956 29.9572 8.62874L39.2538 1.72624C39.2541 1.72601 39.2544 1.72578 39.2547 1.72555C40.0113 1.16647 41.1608 1.74747 41.0493 2.81224C41.0493 2.81238 41.0493 2.81253 41.0493 2.81268L39.809 14.4373Z" stroke="black" stroke-width="3"/>
</svg>
