<svg width="64" height="64" viewBox="0 0 64 64" fill="none" xmlns="http://www.w3.org/2000/svg">
<path d="M44.2269 25.2769L44.2322 25.2781L58.6447 28.5689L58.6459 28.5691C61.7651 29.2797 61.831 33.7055 58.7343 34.5087L58.7331 34.509L44.4281 38.2267C44.4273 38.2269 44.4264 38.2272 44.4255 38.2274C44.4254 38.2274 44.4252 38.2275 44.4251 38.2275C41.5135 38.9815 39.2737 41.2974 38.5981 44.2267L38.5968 44.232L35.3061 58.6444L35.3058 58.6456C34.5952 61.7649 30.1694 61.8308 29.3663 58.7341L29.366 58.7329L25.6482 44.4279C25.648 44.427 25.6478 44.4262 25.6476 44.4253C25.6475 44.4251 25.6475 44.425 25.6475 44.4249C24.8935 41.5133 22.5775 39.2734 19.6483 38.5978L19.6429 38.5966L5.23053 35.3058L5.22931 35.3056C2.11008 34.595 2.04415 30.1692 5.14085 29.366L5.14206 29.3657L19.447 25.648C19.4476 25.6479 19.4482 25.6477 19.4489 25.6475C22.361 24.8939 24.6014 22.5777 25.2771 19.6481L25.2783 19.6427L28.5691 5.2303L28.5694 5.22908C29.28 2.10985 33.7057 2.04393 34.5089 5.14062L34.5092 5.14183L38.2269 19.4468C38.2272 19.4477 38.2274 19.4486 38.2276 19.4494C38.2277 19.4496 38.2277 19.4497 38.2277 19.4498C38.9817 22.3614 41.2976 24.6013 44.2269 25.2769Z" stroke="black" stroke-width="5"/>
</svg>
