<svg width="104" height="104" viewBox="0 0 104 104" fill="none" xmlns="http://www.w3.org/2000/svg">
<path d="M74.6634 62.5891L85.6107 85.6107L62.5891 74.6634L61.0882 73.9497L60.5316 75.5157L52 99.5209L43.4684 75.5157L42.9118 73.9497L41.4109 74.6634L18.3893 85.6107L29.3366 62.5891L30.0503 61.0882L28.4843 60.5316L4.47915 52L28.4843 43.4684L30.0503 42.9118L29.3366 41.4109L18.3893 18.3893L41.4109 29.3366L42.9118 30.0503L43.4684 28.4843L52 4.47915L60.5316 28.4843L61.0882 30.0503L62.5891 29.3366L85.6107 18.3893L74.6634 41.4109L73.9497 42.9118L75.5157 43.4684L99.5209 52L75.5157 60.5316L73.9497 61.0882L74.6634 62.5891Z" stroke="black" stroke-width="3"/>
</svg>
