<svg width="119" height="119" viewBox="0 0 119 119" fill="none" xmlns="http://www.w3.org/2000/svg">
<path d="M86.7499 29.7501V29.7509V29.7517V29.7525V29.7533V29.7541V29.7549V29.7557V29.7565V29.7573V29.7581V29.7589V29.7596V29.7604V29.7612V29.762V29.7628V29.7636V29.7644V29.7652V29.766V29.7668V29.7676V29.7684V29.7692V29.77V29.7708V29.7716V29.7723V29.7731V29.7739V29.7747V29.7755V29.7763V29.7771V29.7779V29.7787V29.7795V29.7803V29.7811V29.7819V29.7827V29.7835V29.7843V29.785V29.7858V29.7866V29.7874V29.7882V29.789V29.7898V29.7906V29.7914V29.7922V29.793V29.7938V29.7946V29.7954V29.7962V29.797V29.7978V29.7985V29.7993V29.8001V29.8009V29.8017V29.8025V29.8033V29.8041V29.8049V29.8057V29.8065V29.8073V29.8081V29.8089V29.8097V29.8105V29.8112V29.812V29.8128V29.8136V29.8144V29.8152V29.816V29.8168V29.8176V29.8184V29.8192V29.82V29.8208V29.8216V29.8224V29.8232V29.8239V29.8247V29.8255V29.8263V29.8271V29.8279V29.8287V29.8295V29.8303V29.8311V29.8319V29.8327V29.8335V29.8343V29.8351V29.8359V29.8366V29.8374V29.8382V29.839V29.8398V29.8406V29.8414V29.8422V29.843V29.8438V29.8446V29.8454V29.8462V29.847V29.8478V29.8486V29.8493V29.8501V29.8509V29.8517V29.8525V29.8533V29.8541V29.8549V29.8557V29.8565V29.8573V29.8581V29.8589V29.8597V29.8605V29.8613V29.862V29.8628V29.8636V29.8644V29.8652V29.866V29.8668V29.8676V29.8684V29.8692V29.87V29.8708V29.8716V29.8724V29.8732V29.874V29.8747V29.8755V29.8763V29.8771V29.8779V29.8787V29.8795V29.8803V29.8811V29.8819V29.8827V29.8835V29.8843V29.8851V29.8859V29.8867V29.8874V29.8882V29.889V29.8898V29.8906V29.8914V29.8922V29.893V29.8938V29.8946V29.8954V29.8962V29.897V29.8978V29.8986V29.8994V29.9002V29.9009V29.9017V29.9025V29.9033V29.9041V29.9049V29.9057V29.9065V29.9073V29.9081V29.9089V29.9097V29.9105V29.9113V29.9121V29.9129V29.9136V29.9144V29.9152V29.916V29.9168V29.9176V29.9184V29.9192V29.92V29.9208V29.9216V29.9224V29.9232V29.924V29.9248V29.9256V29.9263V29.9271V29.9279V29.9287V29.9295V29.9303V29.9311V29.9319V29.9327V29.9335V29.9343V29.9351V29.9359V29.9367V29.9375V29.9383V29.939V29.9398V29.9406V29.9414V29.9422V29.943V29.9438V29.9446V29.9454V29.9462V29.947V29.9478V29.9486V29.9494V29.9502V29.951V29.9517V29.9525V29.9533V29.9541V29.9549V29.9557V29.9565V29.9573V29.9581V29.9589V29.9597V29.9605V29.9613V29.9621V29.9629V29.9637V29.9644V29.9652V29.966V29.9668V29.9676V29.9684V29.9692V29.97V29.9708V29.9716V29.9724V29.9732V29.974V29.9748V29.9756V29.9764V29.9771V29.9779V29.9787V29.9795V29.9803V29.9811V29.9819V29.9827V29.9835V29.9843V29.9851V29.9859V29.9867V29.9875V29.9883V29.9891V29.9898V29.9906V29.9914V29.9922V29.993V29.9938V29.9946V29.9954V29.9962V29.997V29.9978V29.9986V29.9994V30.0002V30.001V30.0018V30.0026V30.0033V30.0041V30.0049V30.0057V30.0065V30.0073V30.0081V30.0089V30.0097V30.0105V30.0113V30.0121V30.0129V30.0137V30.0145V30.0152V30.016V30.0168V30.0176V30.0184V30.0192V30.02V30.0208V30.0216V30.0224V30.0232V30.024V30.0248V30.0256V30.0264V30.0272V30.028V30.0287V30.0295V30.0303V30.0311V30.0319V30.0327V30.0335V30.0343V30.0351V30.0359V30.0367V30.0375V30.0383V30.0391V30.0399V30.0407V30.0414V30.0422V30.043V30.0438V30.0446V30.0454V30.0462V30.047V30.0478V30.0486V30.0494V30.0502V30.051V30.0518V30.0526V30.0534V30.0541V30.0549V30.0557V30.0565V30.0573V30.0581V30.0589V30.0597V30.0605V30.0613V30.0621V30.0629V30.0637V30.0645V30.0653V30.0661V30.0668V30.0676V30.0684V30.0692V30.07V30.0708V30.0716V30.0724V30.0732V30.074V30.0748V30.0756V30.0764V30.0772V30.078V30.0788V30.0795V30.0803V30.0811V30.0819V30.0827V30.0835V30.0843V30.0851V30.0859V30.0867V30.0875V30.0883V30.0891V30.0899V30.0907V30.0915V30.0922V30.093V30.0938V30.0946V30.0954V30.0962V30.097V30.0978V30.0986V30.0994V30.1002V30.101V30.1018V30.1026V30.1034V30.1042V30.1049V30.1057V30.1065V30.1073V30.1081V30.1089V30.1097V30.1105V30.1113V30.1121V30.1129V30.1137V30.1145V30.1153V30.1161V30.1169V30.1176V30.1184V30.1192V30.12V30.1208V30.1216V30.1224V30.1232V30.124V30.1248V30.1256V30.1264V30.1272V30.128V30.1288V30.1296V30.1304V30.1311V30.1319V30.1327V30.1335V30.1343V30.1351V30.1359V30.1367V30.1375V30.1383V30.1391V30.1399V30.1407V30.1415V30.1423V30.1431V30.1438V30.1446V30.1454V30.1462V30.147V30.1478V30.1486V30.1494V30.1502V30.151V30.1518V30.1526V30.1534V30.1542V30.155V30.1558V30.1565H88.8435V32.2501H88.8443H88.8451H88.8459H88.8467H88.8475H88.8483H88.849H88.8498H88.8506H88.8514H88.8522H88.853H88.8538H88.8546H88.8554H88.8562H88.857H88.8578H88.8586H88.8594H88.8602H88.861H88.8617H88.8625H88.8633H88.8641H88.8649H88.8657H88.8665H88.8673H88.8681H88.8689H88.8697H88.8705H88.8713H88.8721H88.8729H88.8737H88.8745H88.8752H88.876H88.8768H88.8776H88.8784H88.8792H88.88H88.8808H88.8816H88.8824H88.8832H88.884H88.8848H88.8856H88.8864H88.8871H88.8879H88.8887H88.8895H88.8903H88.8911H88.8919H88.8927H88.8935H88.8943H88.8951H88.8959H88.8967H88.8975H88.8983H88.8991H88.8998H88.9006H88.9014H88.9022H88.903H88.9038H88.9046H88.9054H88.9062H88.907H88.9078H88.9086H88.9094H88.9102H88.911H88.9118H88.9126H88.9133H88.9141H88.9149H88.9157H88.9165H88.9173H88.9181H88.9189H88.9197H88.9205H88.9213H88.9221H88.9229H88.9237H88.9245H88.9252H88.926H88.9268H88.9276H88.9284H88.9292H88.93H88.9308H88.9316H88.9324H88.9332H88.934H88.9348H88.9356H88.9364H88.9372H88.938H88.9387H88.9395H88.9403H88.9411H88.9419H88.9427H88.9435H88.9443H88.9451H88.9459H88.9467H88.9475H88.9483H88.9491H88.9499H88.9507H88.9514H88.9522H88.953H88.9538H88.9546H88.9554H88.9562H88.957H88.9578H88.9586H88.9594H88.9602H88.961H88.9618H88.9626H88.9633H88.9641H88.9649H88.9657H88.9665H88.9673H88.9681H88.9689H88.9697H88.9705H88.9713H88.9721H88.9729H88.9737H88.9745H88.9753H88.9761H88.9768H88.9776H88.9784H88.9792H88.98H88.9808H88.9816H88.9824H88.9832H88.984H88.9848H88.9856H88.9864H88.9872H88.988H88.9888H88.9895H88.9903H88.9911H88.9919H88.9927H88.9935H88.9943H88.9951H88.9959H88.9967H88.9975H88.9983H88.9991H88.9999H89.0007H89.0014H89.0022H89.003H89.0038H89.0046H89.0054H89.0062H89.007H89.0078H89.0086H89.0094H89.0102H89.011H89.0118H89.0126H89.0134H89.0142H89.0149H89.0157H89.0165H89.0173H89.0181H89.0189H89.0197H89.0205H89.0213H89.0221H89.0229H89.0237H89.0245H89.0253H89.0261H89.0269H89.0276H89.0284H89.0292H89.03H89.0308H89.0316H89.0324H89.0332H89.034H89.0348H89.0356H89.0364H89.0372H89.038H89.0388H89.0396H89.0403H89.0411H89.0419H89.0427H89.0435H89.0443H89.0451H89.0459H89.0467H89.0475H89.0483H89.0491H89.0499H89.0507H89.0515H89.0523H89.053H89.0538H89.0546H89.0554H89.0562H89.057H89.0578H89.0586H89.0594H89.0602H89.061H89.0618H89.0626H89.0634H89.0642H89.065H89.0658H89.0665H89.0673H89.0681H89.0689H89.0697H89.0705H89.0713H89.0721H89.0729H89.0737H89.0745H89.0753H89.0761H89.0769H89.0777H89.0784H89.0792H89.08H89.0808H89.0816H89.0824H89.0832H89.084H89.0848H89.0856H89.0864H89.0872H89.088H89.0888H89.0896H89.0904H89.0911H89.0919H89.0927H89.0935H89.0943H89.0951H89.0959H89.0967H89.0975H89.0983H89.0991H89.0999H89.1007H89.1015H89.1023H89.1031H89.1039H89.1046H89.1054H89.1062H89.107H89.1078H89.1086H89.1094H89.1102H89.111H89.1118H89.1126H89.1134H89.1142H89.115H89.1158H89.1165H89.1173H89.1181H89.1189H89.1197H89.1205H89.1213H89.1221H89.1229H89.1237H89.1245H89.1253H89.1261H89.1269H89.1277H89.1285H89.1292H89.13H89.1308H89.1316H89.1324H89.1332H89.134H89.1348H89.1356H89.1364H89.1372H89.138H89.1388H89.1396H89.1404H89.1412H89.142H89.1427H89.1435H89.1443H89.1451H89.1459H89.1467H89.1475H89.1483H89.1491H89.1499H89.1507H89.1515H89.1523H89.1531H89.1539H89.1546H89.1554H89.1562H89.157H89.1578H89.1586H89.1594H89.1602H89.161H89.1618H89.1626H89.1634H89.1642H89.165H89.1658H89.1666H89.1674H89.1681H89.1689H89.1697H89.1705H89.1713H89.1721H89.1729H89.1737H89.1745H89.1753H89.1761H89.1769H89.1777H89.1785H89.1793H89.1801H89.1808H89.1816H89.1824H89.1832H89.184H89.1848H89.1856H89.1864H89.1872H89.188H89.1888H89.1896H89.1904H89.1912H89.192H89.1927H89.1935H89.1943H89.1951H89.1959H89.1967H89.1975H89.1983H89.1991H89.1999H89.2007H89.2015H89.2023H89.2031H89.2039H89.2047H89.2055H89.2062H89.207H89.2078H89.2086H89.2094H89.2102H89.211H89.2118H89.2126H89.2134H89.2142H89.215H89.2158H89.2166H89.2174H89.2182H89.2189H89.2197H89.2205H89.2213H89.2221H89.2229H89.2237H89.2245H89.2253H89.2261H89.2269H89.2277H89.2285H89.2293H89.2301H89.2309H89.2317H89.2324H89.2332H89.234H89.2348H89.2356H89.2364H89.2372H89.238H89.2388H89.2396H89.2404H89.2412H89.242H89.2428H89.2436H89.2443H89.2451H89.2459H89.2467H89.2475H89.2483H89.2491L89.2499 32.2501L89.2582 32.2501C104.191 32.2005 116.345 44.2024 116.5 59.1067L116.5 59.5001L116.5 59.5084C116.549 74.4169 104.572 86.5944 89.6441 86.75H89.2499H86.7416L86.7499 89.2583C86.7995 104.191 74.798 116.344 59.8942 116.5H59.5H59.1058C44.202 116.344 32.2005 104.191 32.2501 89.2583L30.1565 89.2514V89.25H32.2501V88.8436H30.1565V86.75H30.1557H30.1549H30.1541H30.1533H30.1525H30.1517H30.1509H30.1502H30.1494H30.1486H30.1478H30.147H30.1462H30.1454H30.1446H30.1438H30.143H30.1422H30.1414H30.1406H30.1398H30.139H30.1382H30.1374H30.1367H30.1359H30.1351H30.1343H30.1335H30.1327H30.1319H30.1311H30.1303H30.1295H30.1287H30.1279H30.1271H30.1263H30.1255H30.1247H30.124H30.1232H30.1224H30.1216H30.1208H30.12H30.1192H30.1184H30.1176H30.1168H30.116H30.1152H30.1144H30.1136H30.1128H30.112H30.1113H30.1105H30.1097H30.1089H30.1081H30.1073H30.1065H30.1057H30.1049H30.1041H30.1033H30.1025H30.1017H30.1009H30.1001H30.0993H30.0986H30.0978H30.097H30.0962H30.0954H30.0946H30.0938H30.093H30.0922H30.0914H30.0906H30.0898H30.089H30.0882H30.0874H30.0866H30.0859H30.0851H30.0843H30.0835H30.0827H30.0819H30.0811H30.0803H30.0795H30.0787H30.0779H30.0771H30.0763H30.0755H30.0747H30.0739H30.0732H30.0724H30.0716H30.0708H30.07H30.0692H30.0684H30.0676H30.0668H30.066H30.0652H30.0644H30.0636H30.0628H30.062H30.0612H30.0605H30.0597H30.0589H30.0581H30.0573H30.0565H30.0557H30.0549H30.0541H30.0533H30.0525H30.0517H30.0509H30.0501H30.0493H30.0485H30.0478H30.047H30.0462H30.0454H30.0446H30.0438H30.043H30.0422H30.0414H30.0406H30.0398H30.039H30.0382H30.0374H30.0366H30.0358H30.0351H30.0343H30.0335H30.0327H30.0319H30.0311H30.0303H30.0295H30.0287H30.0279H30.0271H30.0263H30.0255H30.0247H30.0239H30.0231H30.0224H30.0216H30.0208H30.02H30.0192H30.0184H30.0176H30.0168H30.016H30.0152H30.0144H30.0136H30.0128H30.012H30.0112H30.0104H30.0096H30.0089H30.0081H30.0073H30.0065H30.0057H30.0049H30.0041H30.0033H30.0025H30.0017H30.0009H30.0001H29.9993H29.9985H29.9977H29.9969H29.9962H29.9954H29.9946H29.9938H29.993H29.9922H29.9914H29.9906H29.9898H29.989H29.9882H29.9874H29.9866H29.9858H29.985H29.9842H29.9835H29.9827H29.9819H29.9811H29.9803H29.9795H29.9787H29.9779H29.9771H29.9763H29.9755H29.9747H29.9739H29.9731H29.9723H29.9715H29.9708H29.97H29.9692H29.9684H29.9676H29.9668H29.966H29.9652H29.9644H29.9636H29.9628H29.962H29.9612H29.9604H29.9596H29.9588H29.9581H29.9573H29.9565H29.9557H29.9549H29.9541H29.9533H29.9525H29.9517H29.9509H29.9501H29.9493H29.9485H29.9477H29.9469H29.9461H29.9454H29.9446H29.9438H29.943H29.9422H29.9414H29.9406H29.9398H29.939H29.9382H29.9374H29.9366H29.9358H29.935H29.9342H29.9334H29.9327H29.9319H29.9311H29.9303H29.9295H29.9287H29.9279H29.9271H29.9263H29.9255H29.9247H29.9239H29.9231H29.9223H29.9215H29.9207H29.92H29.9192H29.9184H29.9176H29.9168H29.916H29.9152H29.9144H29.9136H29.9128H29.912H29.9112H29.9104H29.9096H29.9088H29.908H29.9073H29.9065H29.9057H29.9049H29.9041H29.9033H29.9025H29.9017H29.9009H29.9001H29.8993H29.8985H29.8977H29.8969H29.8961H29.8953H29.8946H29.8938H29.893H29.8922H29.8914H29.8906H29.8898H29.889H29.8882H29.8874H29.8866H29.8858H29.885H29.8842H29.8834H29.8826H29.8818H29.8811H29.8803H29.8795H29.8787H29.8779H29.8771H29.8763H29.8755H29.8747H29.8739H29.8731H29.8723H29.8715H29.8707H29.8699H29.8692H29.8684H29.8676H29.8668H29.866H29.8652H29.8644H29.8636H29.8628H29.862H29.8612H29.8604H29.8596H29.8588H29.858H29.8572H29.8564H29.8557H29.8549H29.8541H29.8533H29.8525H29.8517H29.8509H29.8501H29.8493H29.8485H29.8477H29.8469H29.8461H29.8453H29.8445H29.8437H29.843H29.8422H29.8414H29.8406H29.8398H29.839H29.8382H29.8374H29.8366H29.8358H29.835H29.8342H29.8334H29.8326H29.8318H29.831H29.8303H29.8295H29.8287H29.8279H29.8271H29.8263H29.8255H29.8247H29.8239H29.8231H29.8223H29.8215H29.8207H29.8199H29.8191H29.8183H29.8176H29.8168H29.816H29.8152H29.8144H29.8136H29.8128H29.812H29.8112H29.8104H29.8096H29.8088H29.808H29.8072H29.8064H29.8056H29.8049H29.8041H29.8033H29.8025H29.8017H29.8009H29.8001H29.7993H29.7985H29.7977H29.7969H29.7961H29.7953H29.7945H29.7937H29.7929H29.7922H29.7914H29.7906H29.7898H29.789H29.7882H29.7874H29.7866H29.7858H29.785H29.7842H29.7834H29.7826H29.7818H29.781H29.7802H29.7795H29.7787H29.7779H29.7771H29.7763H29.7755H29.7747H29.7739H29.7731H29.7723H29.7715H29.7707H29.7699H29.7691H29.7683H29.7675H29.7668H29.766H29.7652H29.7644H29.7636H29.7628H29.762H29.7612H29.7604H29.7596H29.7588H29.758H29.7572H29.7564H29.7556H29.7548H29.754H29.7533H29.7525H29.7517H29.7509H29.7501H29.3559C14.4536 86.5944 2.45055 74.4153 2.50017 59.5084V59.5001V59.1064C2.65553 44.2023 14.8091 32.2005 29.7418 32.2501L32.2501 32.2584V29.7501V29.3567C32.4053 14.454 44.5845 2.45055 59.4917 2.50015L59.5 2.50018L59.5083 2.50015C74.417 2.45054 86.5947 14.4284 86.7499 29.3566V29.7501ZM39.0904 77.4097V79.9097H41.5904H77.4096H77.4367H79.9367V77.4097V41.5905V39.0905H77.4367H41.5904H39.0904V41.5905V77.4097Z" fill="#DB2777" stroke="black" stroke-width="5"/>
</svg>
