<svg width="201" height="115" viewBox="0 0 201 115" fill="none" xmlns="http://www.w3.org/2000/svg">
<path d="M181.901 14.0759L181.905 14.0673L181.91 14.0588C186.43 5.53085 193.783 3.25493 198.5 2.67908V92.2778C197.456 95.8887 196.385 98.6707 195.164 100.981C189.601 111.369 179.956 112.5 175.967 112.5C171.977 112.5 162.329 111.368 156.767 100.975L156.763 100.967C155.457 98.5501 154.309 95.5918 153.239 91.7067L150.829 82.9584L148.419 91.7067C147.348 95.5918 146.201 98.5501 144.895 100.967L144.891 100.975C139.329 111.368 129.681 112.5 125.691 112.5C121.701 112.5 112.053 111.368 106.491 100.975L106.486 100.967C105.181 98.5501 104.033 95.5918 102.963 91.7067L100.553 82.9584L98.1424 91.7067C97.072 95.5918 95.9243 98.5501 94.6189 100.967L94.6145 100.975C89.0522 111.368 79.4043 112.5 75.4144 112.5C71.4246 112.5 61.7766 111.368 56.2144 100.975L56.2099 100.967C54.9046 98.5501 53.7569 95.5918 52.6865 91.7067L50.2763 82.9584L47.8661 91.7067C46.7957 95.5918 45.648 98.5501 44.3426 100.967L44.3382 100.975C38.7759 111.368 29.128 112.5 25.1381 112.5C21.1483 112.5 11.5003 111.368 5.93807 100.975L5.93809 100.975L5.93364 100.967C4.66471 98.6176 3.54476 95.7565 2.5 92.0298L2.5 30.8621L2.5 2.68364C7.17588 3.20276 14.5908 5.45547 19.2001 14.0676L19.2045 14.0759C20.5099 16.493 21.6576 19.4513 22.7279 23.3364L25.1381 32.0847L27.5483 23.3364C28.6187 19.4513 29.7664 16.493 31.0718 14.0759L31.0762 14.0676C36.6385 3.67489 46.2864 2.54309 50.2763 2.54309C54.2661 2.54309 63.9141 3.67489 69.4763 14.0676L69.4808 14.0759C70.7862 16.493 71.9339 19.4513 73.0042 23.3364L75.4144 32.0847L77.8246 23.3364C78.895 19.4513 80.0427 16.493 81.3481 14.0759L81.3525 14.0676C86.9148 3.67489 96.5627 2.54309 100.553 2.54309C104.542 2.54309 114.19 3.67489 119.753 14.0676L119.757 14.0759C121.062 16.493 122.21 19.4513 123.281 23.3364L125.691 32.0847L128.101 23.3364C129.171 19.4513 130.319 16.493 131.624 14.0759L131.629 14.0676C137.191 3.67489 146.839 2.54309 150.829 2.54309C154.819 2.54309 164.467 3.67489 170.029 14.0676L170.033 14.0759C171.339 16.493 172.486 19.4513 173.557 23.3364L175.967 32.0847L178.377 23.3364C179.448 19.4513 180.595 16.493 181.901 14.0759Z" fill="#DB2777" stroke="black" stroke-width="5"/>
</svg>
