<svg width="77" height="76" viewBox="0 0 77 76" fill="none" xmlns="http://www.w3.org/2000/svg">
<path id="Vector" d="M36.2209 19.0164L38.0692 21.049L39.919 19.0176L50.9951 6.85368L50.1456 23.1971L50.0017 25.9652L52.7699 25.8236L69.224 24.9823L57.0162 35.9169L54.9357 37.7804L57.0174 39.6425L69.224 50.5616L52.7677 49.7346L50.0017 49.5956L50.1456 52.3613L50.9951 68.6901L39.918 56.5396L38.0692 54.5117L36.2219 56.5408L25.1605 68.6901L25.9955 52.3591L26.1368 49.5956L23.3732 49.7346L6.93154 50.5616L19.1247 39.6415L21.2027 37.7804L19.1259 35.9179L6.93151 24.9823L23.371 25.8236L26.1368 25.9652L25.9955 23.1993L25.1605 6.85366L36.2209 19.0164Z" fill="#DB2777" stroke="black" stroke-width="5"/>
</svg>
