<svg width="142" height="176" viewBox="0 0 142 176" fill="none" xmlns="http://www.w3.org/2000/svg">
<path d="M142 56.9152C142 51.1796 137.066 45.7648 127.92 41.3528C137.066 36.9407 142 31.526 142 25.7903C142 18.691 134.499 12.1531 120.82 7.29991C107.503 2.60711 89.813 0 71 0C52.187 0 34.4972 2.60711 21.1797 7.34002C7.50113 12.1933 0 18.7311 0 25.8304C0 31.5661 4.9339 36.9809 14.0797 41.3929C4.9339 45.8049 0 51.2197 0 56.9553C0 62.691 4.9339 68.1057 14.0797 72.5178C4.9339 76.8496 0 82.2644 0 88C0 93.7356 4.9339 99.1504 14.0797 103.562C4.9339 107.974 0 113.389 0 119.125C0 124.861 4.9339 130.275 14.0797 134.687C4.9339 139.059 0 144.434 0 150.17C0 157.269 7.50113 163.807 21.1797 168.66C34.4972 173.393 52.187 176 71 176C89.813 176 107.503 173.393 120.82 168.66C134.459 163.807 142 157.269 142 150.17C142 144.434 137.066 139.019 127.92 134.607C137.066 130.195 142 124.78 142 119.045C142 113.309 137.066 107.894 127.92 103.482C137.066 99.0702 142 93.6554 142 87.9198C142 82.1841 137.066 76.7694 127.92 72.3573C137.066 68.0255 142 62.6509 142 56.9152ZM2.00565 25.8304C2.00565 19.7338 9.22599 13.7174 21.8616 9.22516C34.9785 4.57247 52.4277 2.00547 71.0401 2.00547C89.6525 2.00547 107.102 4.57247 120.219 9.22516C132.774 13.6773 139.994 19.7338 139.994 25.8304C139.994 30.9644 134.78 36.0985 125.514 40.2698C124.029 39.6281 122.465 39.0264 120.82 38.4248C107.503 33.6919 89.813 31.0848 71 31.0848C52.187 31.0848 34.4972 33.6919 21.1797 38.4248C19.535 39.0264 17.9706 39.6281 16.4864 40.2698C7.18022 36.0985 2.00565 30.9644 2.00565 25.8304ZM122.946 41.3528C122.064 41.7138 121.141 42.0748 120.179 42.3956C107.062 47.0483 89.6124 49.6153 71 49.6153C52.3876 49.6153 34.9384 47.0483 21.8215 42.3956C20.8588 42.0748 19.9362 41.7138 19.0537 41.3528C19.9362 40.9918 20.8588 40.6308 21.8215 40.3099C34.9384 35.6573 52.3876 33.0902 71 33.0902C89.6124 33.0902 107.062 35.6573 120.179 40.3099C121.141 40.6709 122.064 40.9918 122.946 41.3528ZM139.994 150.17C139.994 156.266 132.774 162.283 120.138 166.775C107.021 171.428 89.5723 173.995 70.9599 173.995C52.3475 173.995 34.8983 171.428 21.7814 166.775C9.22599 162.323 2.00565 156.266 2.00565 150.17C2.00565 145.036 7.22034 139.902 16.4864 135.73C17.9706 136.372 19.535 136.974 21.1797 137.575C34.4972 142.308 52.187 144.915 71 144.915C89.813 144.915 107.503 142.308 120.82 137.575C122.465 136.974 124.029 136.372 125.514 135.73C134.82 139.902 139.994 145.036 139.994 150.17ZM19.0537 134.647C19.9362 134.286 20.8588 133.925 21.8215 133.604C34.9384 128.952 52.3876 126.385 71 126.385C89.6124 126.385 107.062 128.952 120.179 133.604C121.141 133.925 122.064 134.286 122.946 134.647C122.064 135.008 121.141 135.369 120.179 135.69C107.062 140.343 89.6124 142.91 71 142.91C52.3876 142.91 34.9384 140.343 21.8215 135.69C20.8588 135.329 19.9362 135.008 19.0537 134.647ZM139.994 119.085C139.994 124.219 134.78 129.353 125.514 133.524C124.029 132.882 122.465 132.281 120.82 131.679C107.503 126.946 89.813 124.339 71 124.339C52.187 124.339 34.4972 126.946 21.1797 131.679C19.535 132.281 17.9706 132.882 16.4864 133.524C7.22034 129.353 2.00565 124.219 2.00565 119.085C2.00565 113.951 7.22034 108.817 16.4864 104.645C17.9706 105.287 19.535 105.889 21.1797 106.49C34.4972 111.223 52.187 113.83 71 113.83C89.813 113.83 107.503 111.223 120.82 106.49C122.465 105.889 124.029 105.287 125.514 104.645C134.82 108.817 139.994 113.951 139.994 119.085ZM19.0537 103.562C19.9362 103.201 20.8588 102.84 21.8215 102.52C34.9384 97.8669 52.3876 95.2999 71 95.2999C89.5723 95.2999 107.062 97.8669 120.179 102.52C121.141 102.84 122.064 103.201 122.946 103.562C122.064 103.923 121.141 104.284 120.179 104.605C107.062 109.258 89.6124 111.825 71 111.825C52.3876 111.825 34.9384 109.258 21.8215 104.605C20.8588 104.244 19.9362 103.883 19.0537 103.562ZM139.994 88C139.994 93.134 134.78 98.268 125.514 102.439C124.029 101.798 122.465 101.196 120.82 100.594C107.503 95.8614 89.813 93.2543 71 93.2543C52.187 93.2543 34.4972 95.8614 21.1797 100.594C19.535 101.196 17.9706 101.798 16.4864 102.439C7.18022 98.268 2.00565 93.134 2.00565 88C2.00565 82.866 7.22034 77.732 16.4864 73.5606C17.9706 74.2024 19.535 74.804 21.1797 75.4057C34.4972 80.1386 52.187 82.7457 71 82.7457C89.813 82.7457 107.503 80.1386 120.82 75.4057C122.465 74.804 124.029 74.2024 125.514 73.5606C134.82 77.732 139.994 82.866 139.994 88ZM19.0537 72.4376C19.9362 72.0766 20.8588 71.7156 21.8215 71.3947C34.9384 66.742 52.3876 64.175 71 64.175C89.6124 64.175 107.062 66.742 120.179 71.3947C121.141 71.7156 122.064 72.0766 122.946 72.4376C122.064 72.7985 121.141 73.1595 120.179 73.4804C107.062 78.1331 89.6124 80.7001 71 80.7001C52.3876 80.7001 34.9384 78.1331 21.8215 73.4804C20.8588 73.1595 19.9362 72.7985 19.0537 72.4376ZM125.554 71.3546C124.069 70.7129 122.505 70.1112 120.86 69.5096C107.543 64.7767 89.8531 62.1696 71.0401 62.1696C52.2271 62.1696 34.5373 64.7767 21.2198 69.5096C19.5751 70.1112 18.0107 70.7129 16.5266 71.3546C7.26045 67.1832 2.04576 62.0492 2.04576 56.9152C2.04576 51.7812 7.26045 46.6472 16.5266 42.4758C18.0107 43.1176 19.5751 43.7192 21.2198 44.3209C34.5373 49.0538 52.2271 51.6609 71.0401 51.6609C89.8531 51.6609 107.543 49.0538 120.86 44.3209C122.505 43.7192 124.069 43.1176 125.554 42.4758C134.82 46.6472 140.034 51.7812 140.034 56.9152C140.034 62.0492 134.82 67.1832 125.554 71.3546Z" fill="#DB2777"/>
</svg>
