<svg fill="none" height="106" viewBox="0 0 106 106" width="106" xmlns="http://www.w3.org/2000/svg"><path d="m41.9483 78.9121 10.6831-10.6831 10.6831 10.6831c4.3124 4.3125 11.3131 4.3125 15.6256 0 4.3124-4.3124 4.3124-11.3131 0-15.6256l-10.6831-10.6831 10.6831-10.6831c4.2984-4.2984 4.2984-11.2991-.014-15.6116-4.3125-4.3124-11.3132-4.3124-15.6256.0001l-10.6831 10.683-10.6831-10.6831c-4.3125-4.3124-11.3132-4.3124-15.6256 0-4.3124 4.3125-4.3125 11.3132 0 15.6256l10.6831 10.6831-10.6831 10.6831c-4.3124 4.3125-4.3124 11.3132 0 15.6256 4.3264 4.2985 11.3271 4.2985 15.6396-.014z" fill="#db2777"/></svg>