<svg fill="none" height="233" viewBox="0 0 243 233" width="243" xmlns="http://www.w3.org/2000/svg"><path d="m118.608 37.1107 2.889 4.2386 2.893-4.2355 19.128-28.00059.004-.00487c7.102-10.43522 23.521-5.19262 23.217 7.57876v.0065l-.917 33.8926-.138 5.1026 4.809-1.7102 31.902-11.3445.008-.0027c11.905-4.2636 22.078 9.7252 14.328 19.7443l-.008.0105-20.635 26.8859-3.106 4.0465 4.893 1.4417 32.489 9.5727c.001.001.001.001.002.001h.001c12.178 3.604 12.177 20.833-.003 24.435l-32.553 9.572-4.896 1.44 3.107 4.049 20.635 26.886.003.004c7.765 10.089-2.421 24.013-14.323 19.751l-31.836-11.41-4.818-1.727.139 5.116.917 33.903v.004c.359 12.678-16.011 18.019-23.224 7.562-.002-.003-.003-.005-.005-.007l-19.12-27.989-2.89-4.231-2.89 4.231-19.1282 28-.0033.005c-7.1034 10.436-23.5236 5.192-23.2172-7.581 0-.001.0001-.003.0001-.004l.9169-33.893.138-5.102-4.8094 1.71-31.9022 11.345-.0074.002c-11.9053 4.264-22.0785-9.725-14.3281-19.744l.0081-.011 20.6349-26.885 3.1057-4.047-4.893-1.442-32.4886-9.573c-12.18174-3.601-12.181734-20.833 0-24.435l32.4886-9.5732 4.893-1.4418-3.1057-4.0465-20.6349-26.8858-.0028-.0037c-7.7652-10.0897 2.4212-24.0135 14.3228-19.7512l.0074.0027 31.9022 11.3445 4.8094 1.7102-.138-5.1026-.9171-33.9023-.0002-.0044c-.3589-12.67734 16.0101-18.01909 23.2236-7.56213.0017.00242.0033.00484.005.00726z" fill="#db2777" stroke="#000" stroke-width="7"/></svg>