<svg width="114" height="114" viewBox="0 0 114 114" fill="none" xmlns="http://www.w3.org/2000/svg">
<g id="Spark 25">
<path id="Vector" d="M70.6048 32.7351L70.6121 32.7329L97.8754 24.7684L97.877 24.7679C105.086 22.6579 110.281 31.6562 104.85 36.8446L104.848 36.8458L84.3223 56.4711C84.3222 56.4713 84.322 56.4714 84.3219 56.4716C80.4932 60.1234 79.0326 65.6031 80.5062 70.6888L80.5084 70.6961L88.473 97.9593L88.4735 97.961C90.5834 105.17 81.5851 110.365 76.3967 104.934L76.3955 104.932L56.7702 84.4063C56.77 84.4062 56.7699 84.406 56.7697 84.4059C53.1179 80.5772 47.6382 79.1166 42.5526 80.5902L42.5452 80.5924L15.282 88.5569L15.2803 88.5574C8.07109 90.6674 2.87589 81.6691 8.30778 76.4807L8.30904 76.4795L28.835 56.8542C28.8355 56.8537 28.836 56.8532 28.8365 56.8527C32.6644 53.2009 34.1245 47.7218 32.6511 42.6365L32.6489 42.6292L24.6844 15.366L24.6839 15.3643C22.5739 8.15508 31.5722 2.95988 36.7606 8.39177L36.7618 8.39304L56.3871 28.919C56.3876 28.9195 56.3881 28.92 56.3886 28.9204C60.0404 32.7484 65.5195 34.2085 70.6048 32.7351Z" fill="#FBBF24" stroke="black" stroke-width="7"/>
</g>
</svg>
