<svg fill="none" height="203" viewBox="0 0 380 203" width="380" xmlns="http://www.w3.org/2000/svg"><path d="m342.33 24.252.006-.0104.006-.0105c9.533-16.7922 25.566-20.39185 34.658-21.08703v159.91693c-2.006 6.508-4.078 11.559-6.467 15.78-10.92 19.044-29.974 21.159-37.859 21.159-7.886 0-26.943-2.116-37.863-21.166l-.006-.01c-2.533-4.38-4.737-9.7-6.779-16.619l-2.877-9.751-2.877 9.751c-2.042 6.919-4.245 12.239-6.779 16.619l-.006.01c-10.919 19.05-29.976 21.166-37.863 21.166-7.886 0-26.943-2.116-37.863-21.166l-.006-.01c-2.533-4.38-4.737-9.7-6.778-16.619l-2.878-9.751-2.877 9.751c-2.041 6.919-4.245 12.239-6.779 16.619l-.005.01c-10.92 19.05-29.977 21.166-37.863 21.166-7.887 0-26.944-2.116-37.863-21.166l-.006-.01c-2.534-4.38-4.7375-9.7-6.7789-16.619l-2.8774-9.751-2.8774 9.751c-2.0414 6.919-4.2451 12.239-6.7787 16.619l-.0058.01c-10.9196 19.05-29.9765 21.166-37.8629 21.166-7.8865 0-26.9434-2.116-37.86303-21.166h.00001l-.00583-.01c-2.48289-4.293-4.649-9.488-6.65605-16.206v-108.1397-51.30458c9.0017.57736 25.1509 4.12477 34.863 21.06818l.0058.0101c2.5335 4.3804 4.7373 9.7002 6.7787 16.6187l2.8774 9.7516 2.8773-9.7516c2.0414-6.9185 4.2452-12.2383 6.7787-16.6187l.0058-.0101c10.9196-19.05001 29.9765-21.16583 37.863-21.16583 7.8863 0 26.9433 2.11582 37.8633 21.16583l.006.0101c2.533 4.3804 4.737 9.7002 6.778 16.6187l2.878 9.7516 2.877-9.7516c2.041-6.9185 4.245-12.2383 6.779-16.6187l.005-.0101c10.92-19.05001 29.977-21.16583 37.863-21.16583 7.887 0 26.944 2.11582 37.863 21.16583l.006.0101c2.534 4.3804 4.737 9.7002 6.779 16.6187l2.877 9.7516 2.878-9.7516c2.041-6.9185 4.245-12.2383 6.778-16.6187l.006-.0101c10.92-19.05001 29.977-21.16583 37.863-21.16583 7.887 0 26.943 2.11582 37.863 21.16583l.006.0101c2.533 4.3804 4.737 9.7002 6.779 16.6187l2.877 9.7516 2.877-9.7516c2.042-6.9185 4.246-12.2383 6.779-16.6187z" fill="#fbbf24" stroke="#000" stroke-width="6"/></svg>