<svg fill="none" height="254" viewBox="0 0 254 254" width="254" xmlns="http://www.w3.org/2000/svg"><path d="m254 125.68c0-.44 0-.879 0-1.319 0-9.929-1.382-19.606-3.959-28.7182-14.013-54.9224-63.908-95.6428-123.041-95.6428-70.004 0-127 56.996-127 127s56.9332 127 127 127c68.119 0 123.858-53.917 126.874-121.282.063-.502.063-.942.063-1.445.063-.817.063-1.634.063-2.451 0-.188 0-.377 0-.565 0-.377 0-.754 0-1.131 0-.566 0-1.006 0-1.446zm-3.205 1.76c-.063 2.451-.251 4.901-.503 7.352-2.827 16.339-17.155 28.844-34.31 28.844-19.229 0-34.814-15.647-34.814-34.814 0-19.166 15.647-34.8131 34.814-34.8131 18.412 0 33.556 14.3901 34.75 32.4881.063.252.063.566.063.943zm-34.75-36.6359c-20.926 0-37.956 17.0299-37.956 37.9559 0 20.925 17.03 37.955 37.956 37.955 11.876 0 22.496-5.467 29.472-14.076-8.987 19.229-28.53 32.551-51.152 32.551-31.106 0-56.431-25.325-56.431-56.43 0-31.1064 25.325-56.431 56.431-56.431 22.559 0 42.103 13.3222 51.152 32.551-6.976-8.6089-17.596-14.0759-29.472-14.0759zm-21.68-21.6171c-32.866 0-59.573 26.7071-59.573 59.573 0 32.865 26.707 59.572 59.573 59.572 18.223 0 34.625-8.232 45.559-21.24-13.762 23.377-39.275 39.149-68.307 39.149-43.674 0-79.2419-35.567-79.2419-79.241 0-43.6739 35.5679-79.2415 79.2419-79.2415 33.368 0 62.023 20.7373 73.648 50.0208-10.494-17.1554-29.346-28.5923-50.9-28.5923zm-22.748-24.5705c-45.434 0-82.384 36.9501-82.384 82.3835 0 45.433 36.95 82.383 82.384 82.383 24.633 0 46.69-10.871 61.834-28.026-18.412 27.335-49.643 45.37-85.023 45.37-56.4928 0-102.429-45.936-102.429-102.429 0-56.4935 45.9362-102.4296 102.429-102.4296 43.8 0 81.316 27.6497 95.895 66.422-13.888-25.9529-41.286-43.6739-72.706-43.6739zm-44.617 206.2415c-68.3073 0-123.85799-55.551-123.85799-123.858 0-68.3073 55.55069-123.85799 123.85799-123.85799 40.595 0 76.665 19.60609 99.225 49.83229-19.292-21.0515-47.068-34.2479-77.797-34.2479-58.2523 0-105.571 47.3815-105.571 105.5716 0 58.19 47.3815 105.571 105.571 105.571 40.281 0 75.346-22.685 93.13-55.865-18.538 45.057-62.903 76.854-114.558 76.854z" fill="#fbbf24"/></svg>