<svg width="417" height="417" viewBox="0 0 417 417" fill="none" xmlns="http://www.w3.org/2000/svg">
<path d="M269.083 10.9544L269.081 10.9563L229.888 54.3528C229.886 54.3552 229.884 54.3575 229.882 54.3598C218.509 67.0466 198.59 67.0182 187.127 54.3699L187.123 54.3648L147.919 10.9563L147.916 10.9533C134.895 -3.49277 110.751 6.45203 111.701 26.0283C111.701 26.0304 111.701 26.0326 111.701 26.0347L114.654 84.4212C114.655 84.4232 114.655 84.4252 114.655 84.4273C115.575 101.458 101.46 115.574 84.4295 114.655C84.4267 114.655 84.424 114.655 84.4212 114.654L26.0275 111.701L26.0163 111.7C6.36913 110.651 -3.63077 134.762 10.9544 147.917L10.9563 147.919L54.3528 187.112C54.3552 187.114 54.3575 187.116 54.3598 187.118C67.0466 198.491 67.0182 218.41 54.3699 229.873L54.3648 229.877L10.9563 269.081L10.9533 269.084C-3.49435 282.106 6.4542 306.254 26.0347 305.299L84.4212 302.345C84.4232 302.345 84.4252 302.345 84.4273 302.345C101.458 301.424 115.575 315.542 114.655 332.573C114.655 332.575 114.655 332.577 114.654 332.579L111.701 390.972L111.7 390.984C110.651 410.631 134.762 420.631 147.917 406.046L147.919 406.044L187.112 362.647C187.114 362.644 187.117 362.642 187.119 362.639C198.492 349.953 218.411 349.982 229.873 362.63L229.877 362.635L269.081 406.044L269.084 406.047C282.104 420.493 306.248 410.548 305.299 390.972L269.083 10.9544ZM269.083 10.9544C282.238 -3.63077 306.349 6.36913 305.3 26.0163L305.299 26.0275L302.346 84.4212C302.345 84.4232 302.345 84.4252 302.345 84.4273C301.425 101.458 315.54 115.574 332.57 114.655C332.573 114.655 332.576 114.655 332.579 114.654L390.965 111.701C390.968 111.701 390.97 111.701 390.972 111.701C410.548 110.752 420.493 134.896 406.047 147.916L406.044 147.919L362.635 187.123L362.63 187.127C349.982 198.589 349.953 218.508 362.639 229.881C362.642 229.883 362.644 229.886 362.647 229.888L406.044 269.081L406.046 269.083C420.631 282.238 410.631 306.349 390.984 305.3L390.972 305.299L332.579 302.345C332.577 302.345 332.575 302.345 332.573 302.345C315.542 301.425 301.425 315.542 302.345 332.573C302.345 332.575 302.345 332.577 302.346 332.579L305.299 390.965L269.083 10.9544Z" fill="#FBBF24" stroke="black" stroke-width="8"/>
</svg>
