<svg width="131" height="131" viewBox="0 0 131 131" fill="none" xmlns="http://www.w3.org/2000/svg">
<path d="M95.7499 32.7501V32.751V32.7519V32.7528V32.7536V32.7545V32.7554V32.7563V32.7571V32.758V32.7589V32.7597V32.7606V32.7615V32.7624V32.7632V32.7641V32.765V32.7659V32.7667V32.7676V32.7685V32.7694V32.7702V32.7711V32.772V32.7729V32.7737V32.7746V32.7755V32.7764V32.7772V32.7781V32.779V32.7798V32.7807V32.7816V32.7825V32.7833V32.7842V32.7851V32.786V32.7868V32.7877V32.7886V32.7895V32.7903V32.7912V32.7921V32.793V32.7938V32.7947V32.7956V32.7964V32.7973V32.7982V32.7991V32.7999V32.8008V32.8017V32.8026V32.8034V32.8043V32.8052V32.8061V32.8069V32.8078V32.8087V32.8096V32.8104V32.8113V32.8122V32.8131V32.8139V32.8148V32.8157V32.8165V32.8174V32.8183V32.8192V32.82V32.8209V32.8218V32.8227V32.8235V32.8244V32.8253V32.8262V32.827V32.8279V32.8288V32.8297V32.8305V32.8314V32.8323V32.8331V32.834V32.8349V32.8358V32.8366V32.8375V32.8384V32.8393V32.8401V32.841V32.8419V32.8428V32.8436V32.8445V32.8454V32.8463V32.8471V32.848V32.8489V32.8498V32.8506V32.8515V32.8524V32.8532V32.8541V32.855V32.8559V32.8567V32.8576V32.8585V32.8594V32.8602V32.8611V32.862V32.8629V32.8637V32.8646V32.8655V32.8664V32.8672V32.8681V32.869V32.8699V32.8707V32.8716V32.8725V32.8733V32.8742V32.8751V32.876V32.8768V32.8777V32.8786V32.8795V32.8803V32.8812V32.8821V32.883V32.8838V32.8847V32.8856V32.8865V32.8873V32.8882V32.8891V32.8899V32.8908V32.8917V32.8926V32.8934V32.8943V32.8952V32.8961V32.8969V32.8978V32.8987V32.8996V32.9004V32.9013V32.9022V32.9031V32.9039V32.9048V32.9057V32.9066V32.9074V32.9083V32.9092V32.91V32.9109V32.9118V32.9127V32.9135V32.9144V32.9153V32.9162V32.917V32.9179V32.9188V32.9197V32.9205V32.9214V32.9223V32.9232V32.924V32.9249V32.9258V32.9267V32.9275V32.9284V32.9293V32.9301V32.931V32.9319V32.9328V32.9336V32.9345V32.9354V32.9363V32.9371V32.938V32.9389V32.9398V32.9406V32.9415V32.9424V32.9433V32.9441V32.945V32.9459V32.9468V32.9476V32.9485V32.9494V32.9502V32.9511V32.952V32.9529V32.9537V32.9546V32.9555V32.9564V32.9572V32.9581V32.959V32.9599V32.9607V32.9616V32.9625V32.9634V32.9642V32.9651V32.966V32.9668V32.9677V32.9686V32.9695V32.9703V32.9712V32.9721V32.973V32.9738V32.9747V32.9756V32.9765V32.9773V32.9782V32.9791V32.98V32.9808V32.9817V32.9826V32.9835V32.9843V32.9852V32.9861V32.9869V32.9878V32.9887V32.9896V32.9904V32.9913V32.9922V32.9931V32.9939V32.9948V32.9957V32.9966V32.9974V32.9983V32.9992V33.0001V33.0009V33.0018V33.0027V33.0035V33.0044V33.0053V33.0062V33.007V33.0079V33.0088V33.0097V33.0105V33.0114V33.0123V33.0132V33.014V33.0149V33.0158V33.0167V33.0175V33.0184V33.0193V33.0201V33.021V33.0219V33.0228V33.0236V33.0245V33.0254V33.0263V33.0271V33.028V33.0289V33.0298V33.0306V33.0315V33.0324V33.0333V33.0341V33.035V33.0359V33.0368V33.0376V33.0385V33.0394V33.0402V33.0411V33.042V33.0429V33.0437V33.0446V33.0455V33.0464V33.0472V33.0481V33.049V33.0499V33.0507V33.0516V33.0525V33.0534V33.0542V33.0551V33.056V33.0569V33.0577V33.0586V33.0595V33.0603V33.0612V33.0621V33.063V33.0638V33.0647V33.0656V33.0665V33.0673V33.0682V33.0691V33.07V33.0708V33.0717V33.0726V33.0735V33.0743V33.0752V33.0761V33.077V33.0778V33.0787V33.0796V33.0804V33.0813V33.0822V33.0831V33.0839V33.0848V33.0857V33.0866V33.0874V33.0883V33.0892V33.0901V33.0909V33.0918V33.0927V33.0936V33.0944V33.0953V33.0962V33.097V33.0979V33.0988V33.0997V33.1005V33.1014V33.1023V33.1032V33.104V33.1049V33.1058V33.1067V33.1075V33.1084V33.1093V33.1102V33.111V33.1119V33.1128V33.1137V33.1145V33.1154V33.1163V33.1171V33.118V33.1189V33.1198V33.1206V33.1215V33.1224V33.1233V33.1241V33.125V33.1259V33.1268V33.1276V33.1285V33.1294V33.1303V33.1311V33.132V33.1329V33.1338V33.1346V33.1355V33.1364V33.1372V33.1381V33.139V33.1399V33.1407V33.1416V33.1425V33.1434V33.1442V33.1451V33.146V33.1469V33.1477V33.1486V33.1495V33.1504V33.1512V33.1521V33.153V33.1538V33.1547V33.1556V33.1565V33.1573V33.1582V33.1591V33.16V33.1608V33.1617V33.1626V33.1635V33.1643V33.1652V33.1661V33.167V33.1678V33.1687V33.1696V33.1705V33.1713V33.1722V33.1731V33.1739V33.1748V33.1757V33.1766V33.1774V33.1783V33.1792V33.1801V33.1809V33.1818V33.1827V33.1836V33.1844V33.1853V33.1862V33.1871V33.1879V33.1888V33.1897V33.1905V33.1914V33.1923V33.1932V33.194V33.1949V33.1958V33.1967V33.1975H97.8025V35.2501H97.8034H97.8042H97.8051H97.806H97.8069H97.8077H97.8086H97.8095H97.8104H97.8112H97.8121H97.813H97.8139H97.8147H97.8156H97.8165H97.8174H97.8182H97.8191H97.82H97.8208H97.8217H97.8226H97.8235H97.8243H97.8252H97.8261H97.827H97.8278H97.8287H97.8296H97.8305H97.8313H97.8322H97.8331H97.834H97.8348H97.8357H97.8366H97.8375H97.8383H97.8392H97.8401H97.841H97.8418H97.8427H97.8436H97.8444H97.8453H97.8462H97.8471H97.8479H97.8488H97.8497H97.8506H97.8514H97.8523H97.8532H97.8541H97.8549H97.8558H97.8567H97.8576H97.8584H97.8593H97.8602H97.861H97.8619H97.8628H97.8637H97.8645H97.8654H97.8663H97.8672H97.868H97.8689H97.8698H97.8707H97.8715H97.8724H97.8733H97.8742H97.875H97.8759H97.8768H97.8776H97.8785H97.8794H97.8803H97.8811H97.882H97.8829H97.8838H97.8846H97.8855H97.8864H97.8873H97.8881H97.889H97.8899H97.8908H97.8916H97.8925H97.8934H97.8942H97.8951H97.896H97.8969H97.8977H97.8986H97.8995H97.9004H97.9012H97.9021H97.903H97.9039H97.9047H97.9056H97.9065H97.9074H97.9082H97.9091H97.91H97.9109H97.9117H97.9126H97.9135H97.9144H97.9152H97.9161H97.917H97.9178H97.9187H97.9196H97.9205H97.9213H97.9222H97.9231H97.924H97.9248H97.9257H97.9266H97.9275H97.9283H97.9292H97.9301H97.931H97.9318H97.9327H97.9336H97.9344H97.9353H97.9362H97.9371H97.9379H97.9388H97.9397H97.9406H97.9414H97.9423H97.9432H97.9441H97.9449H97.9458H97.9467H97.9476H97.9484H97.9493H97.9502H97.951H97.9519H97.9528H97.9537H97.9545H97.9554H97.9563H97.9572H97.958H97.9589H97.9598H97.9607H97.9615H97.9624H97.9633H97.9642H97.965H97.9659H97.9668H97.9677H97.9685H97.9694H97.9703H97.9711H97.972H97.9729H97.9738H97.9746H97.9755H97.9764H97.9773H97.9781H97.979H97.9799H97.9808H97.9816H97.9825H97.9834H97.9843H97.9851H97.986H97.9869H97.9878H97.9886H97.9895H97.9904H97.9912H97.9921H97.993H97.9939H97.9947H97.9956H97.9965H97.9974H97.9982H97.9991H98H98.0009H98.0017H98.0026H98.0035H98.0044H98.0052H98.0061H98.007H98.0079H98.0087H98.0096H98.0105H98.0113H98.0122H98.0131H98.014H98.0148H98.0157H98.0166H98.0175H98.0183H98.0192H98.0201H98.021H98.0218H98.0227H98.0236H98.0245H98.0253H98.0262H98.0271H98.0279H98.0288H98.0297H98.0306H98.0314H98.0323H98.0332H98.0341H98.0349H98.0358H98.0367H98.0376H98.0384H98.0393H98.0402H98.0411H98.0419H98.0428H98.0437H98.0445H98.0454H98.0463H98.0472H98.048H98.0489H98.0498H98.0507H98.0515H98.0524H98.0533H98.0542H98.055H98.0559H98.0568H98.0577H98.0585H98.0594H98.0603H98.0612H98.062H98.0629H98.0638H98.0647H98.0655H98.0664H98.0673H98.0681H98.069H98.0699H98.0708H98.0716H98.0725H98.0734H98.0743H98.0751H98.076H98.0769H98.0778H98.0786H98.0795H98.0804H98.0813H98.0821H98.083H98.0839H98.0847H98.0856H98.0865H98.0874H98.0882H98.0891H98.09H98.0909H98.0917H98.0926H98.0935H98.0944H98.0952H98.0961H98.097H98.0979H98.0987H98.0996H98.1005H98.1013H98.1022H98.1031H98.104H98.1048H98.1057H98.1066H98.1075H98.1083H98.1092H98.1101H98.111H98.1118H98.1127H98.1136H98.1145H98.1153H98.1162H98.1171H98.118H98.1188H98.1197H98.1206H98.1214H98.1223H98.1232H98.1241H98.1249H98.1258H98.1267H98.1276H98.1284H98.1293H98.1302H98.1311H98.1319H98.1328H98.1337H98.1346H98.1354H98.1363H98.1372H98.1381H98.1389H98.1398H98.1407H98.1415H98.1424H98.1433H98.1442H98.145H98.1459H98.1468H98.1477H98.1485H98.1494H98.1503H98.1512H98.152H98.1529H98.1538H98.1547H98.1555H98.1564H98.1573H98.1581H98.159H98.1599H98.1608H98.1616H98.1625H98.1634H98.1643H98.1651H98.166H98.1669H98.1678H98.1686H98.1695H98.1704H98.1713H98.1721H98.173H98.1739H98.1748H98.1756H98.1765H98.1774H98.1782H98.1791H98.18H98.1809H98.1817H98.1826H98.1835H98.1844H98.1852H98.1861H98.187H98.1879H98.1887H98.1896H98.1905H98.1914H98.1922H98.1931H98.194H98.1948H98.1957H98.1966H98.1975H98.1983H98.1992H98.2001H98.201H98.2018H98.2027H98.2036H98.2045H98.2053H98.2062H98.2071H98.208H98.2088H98.2097H98.2106H98.2115H98.2123H98.2132H98.2141H98.215H98.2158H98.2167H98.2176H98.2184H98.2193H98.2202H98.2211H98.2219H98.2228H98.2237H98.2246H98.2254H98.2263H98.2272H98.2281H98.2289H98.2298H98.2307H98.2316H98.2324H98.2333H98.2342H98.235H98.2359H98.2368H98.2377H98.2385H98.2394H98.2403H98.2412H98.242H98.2429H98.2438H98.2447H98.2455H98.2464H98.2473H98.2482H98.249L98.2499 35.2501L98.2582 35.2501C114.836 35.195 128.328 48.5194 128.5 65.0657L128.5 65.5001L128.5 65.5084C128.555 82.0592 115.257 95.5784 98.6844 95.75H98.2499H95.7416L95.7499 98.2583C95.805 114.836 82.4807 128.328 65.9344 128.5H65.5H65.0656C48.5193 128.328 35.195 114.836 35.2501 98.2583L33.1975 98.2515V98.25H35.2501V97.8026H33.1975V95.75H33.1966H33.1957H33.1949H33.194H33.1931H33.1922H33.1914H33.1905H33.1896H33.1888H33.1879H33.187H33.1861H33.1853H33.1844H33.1835H33.1826H33.1818H33.1809H33.18H33.1791H33.1783H33.1774H33.1765H33.1756H33.1748H33.1739H33.173H33.1722H33.1713H33.1704H33.1695H33.1687H33.1678H33.1669H33.166H33.1652H33.1643H33.1634H33.1625H33.1617H33.1608H33.1599H33.159H33.1582H33.1573H33.1564H33.1555H33.1547H33.1538H33.1529H33.1521H33.1512H33.1503H33.1494H33.1486H33.1477H33.1468H33.1459H33.1451H33.1442H33.1433H33.1424H33.1416H33.1407H33.1398H33.1389H33.1381H33.1372H33.1363H33.1355H33.1346H33.1337H33.1328H33.132H33.1311H33.1302H33.1293H33.1285H33.1276H33.1267H33.1258H33.125H33.1241H33.1232H33.1223H33.1215H33.1206H33.1197H33.1188H33.118H33.1171H33.1162H33.1154H33.1145H33.1136H33.1127H33.1119H33.111H33.1101H33.1092H33.1084H33.1075H33.1066H33.1057H33.1049H33.104H33.1031H33.1022H33.1014H33.1005H33.0996H33.0988H33.0979H33.097H33.0961H33.0953H33.0944H33.0935H33.0926H33.0918H33.0909H33.09H33.0891H33.0883H33.0874H33.0865H33.0856H33.0848H33.0839H33.083H33.0821H33.0813H33.0804H33.0795H33.0787H33.0778H33.0769H33.076H33.0752H33.0743H33.0734H33.0725H33.0717H33.0708H33.0699H33.069H33.0682H33.0673H33.0664H33.0655H33.0647H33.0638H33.0629H33.062H33.0612H33.0603H33.0594H33.0586H33.0577H33.0568H33.0559H33.0551H33.0542H33.0533H33.0524H33.0516H33.0507H33.0498H33.0489H33.0481H33.0472H33.0463H33.0454H33.0446H33.0437H33.0428H33.042H33.0411H33.0402H33.0393H33.0385H33.0376H33.0367H33.0358H33.035H33.0341H33.0332H33.0323H33.0315H33.0306H33.0297H33.0288H33.028H33.0271H33.0262H33.0253H33.0245H33.0236H33.0227H33.0219H33.021H33.0201H33.0192H33.0184H33.0175H33.0166H33.0157H33.0149H33.014H33.0131H33.0122H33.0114H33.0105H33.0096H33.0087H33.0079H33.007H33.0061H33.0052H33.0044H33.0035H33.0026H33.0018H33.0009H33H32.9991H32.9983H32.9974H32.9965H32.9956H32.9948H32.9939H32.993H32.9921H32.9913H32.9904H32.9895H32.9886H32.9878H32.9869H32.986H32.9852H32.9843H32.9834H32.9825H32.9817H32.9808H32.9799H32.979H32.9782H32.9773H32.9764H32.9755H32.9747H32.9738H32.9729H32.972H32.9712H32.9703H32.9694H32.9685H32.9677H32.9668H32.9659H32.9651H32.9642H32.9633H32.9624H32.9616H32.9607H32.9598H32.9589H32.9581H32.9572H32.9563H32.9554H32.9546H32.9537H32.9528H32.9519H32.9511H32.9502H32.9493H32.9485H32.9476H32.9467H32.9458H32.945H32.9441H32.9432H32.9423H32.9415H32.9406H32.9397H32.9388H32.938H32.9371H32.9362H32.9353H32.9345H32.9336H32.9327H32.9318H32.931H32.9301H32.9292H32.9284H32.9275H32.9266H32.9257H32.9249H32.924H32.9231H32.9222H32.9214H32.9205H32.9196H32.9187H32.9179H32.917H32.9161H32.9152H32.9144H32.9135H32.9126H32.9118H32.9109H32.91H32.9091H32.9083H32.9074H32.9065H32.9056H32.9048H32.9039H32.903H32.9021H32.9013H32.9004H32.8995H32.8986H32.8978H32.8969H32.896H32.8951H32.8943H32.8934H32.8925H32.8917H32.8908H32.8899H32.889H32.8882H32.8873H32.8864H32.8855H32.8847H32.8838H32.8829H32.882H32.8812H32.8803H32.8794H32.8785H32.8777H32.8768H32.8759H32.875H32.8742H32.8733H32.8724H32.8716H32.8707H32.8698H32.8689H32.8681H32.8672H32.8663H32.8654H32.8646H32.8637H32.8628H32.8619H32.8611H32.8602H32.8593H32.8584H32.8576H32.8567H32.8558H32.8549H32.8541H32.8532H32.8523H32.8515H32.8506H32.8497H32.8488H32.848H32.8471H32.8462H32.8453H32.8445H32.8436H32.8427H32.8418H32.841H32.8401H32.8392H32.8383H32.8375H32.8366H32.8357H32.8349H32.834H32.8331H32.8322H32.8314H32.8305H32.8296H32.8287H32.8279H32.827H32.8261H32.8252H32.8244H32.8235H32.8226H32.8217H32.8209H32.82H32.8191H32.8182H32.8174H32.8165H32.8156H32.8148H32.8139H32.813H32.8121H32.8113H32.8104H32.8095H32.8086H32.8078H32.8069H32.806H32.8051H32.8043H32.8034H32.8025H32.8016H32.8008H32.7999H32.799H32.7981H32.7973H32.7964H32.7955H32.7947H32.7938H32.7929H32.792H32.7912H32.7903H32.7894H32.7885H32.7877H32.7868H32.7859H32.785H32.7842H32.7833H32.7824H32.7815H32.7807H32.7798H32.7789H32.7781H32.7772H32.7763H32.7754H32.7746H32.7737H32.7728H32.7719H32.7711H32.7702H32.7693H32.7684H32.7676H32.7667H32.7658H32.7649H32.7641H32.7632H32.7623H32.7615H32.7606H32.7597H32.7588H32.758H32.7571H32.7562H32.7553H32.7545H32.7536H32.7527H32.7518H32.751H32.7501H32.3157C15.7709 95.5784 2.4451 82.0577 2.50018 65.5084V65.5001V65.0654C2.67196 48.5193 16.1643 35.195 32.7418 35.2501L35.2501 35.2585V32.7501V32.3153C35.4219 15.7707 48.9426 2.4451 65.4917 2.50017L65.5 2.5002L65.5083 2.50017C82.0591 2.44509 95.5783 15.7426 95.7499 32.3156V32.7501ZM43.2844 85.2157V87.7157H45.7844H85.2156H85.2454H87.7454V85.2157V45.7845V43.2845H85.2454H45.7844H43.2844V45.7845V85.2157Z" fill="#FBBF24" stroke="black" stroke-width="5"/>
</svg>
