<svg width="65" height="64" viewBox="0 0 65 64" fill="none" xmlns="http://www.w3.org/2000/svg">
<path id="Vector" d="M30.5938 16.3041L32.4421 18.3367L34.2918 16.3053L42.8982 6.85368L42.2384 19.5471L42.0945 22.3152L44.8627 22.1736L57.6367 21.5204L48.1636 30.0056L46.0832 31.869L48.1648 33.7311L57.6367 42.2039L44.8605 41.5619L42.0945 41.4229L42.2384 44.1886L42.8982 56.8706L34.2908 47.4292L32.4421 45.4014L30.5948 47.4304L21.9999 56.8706L22.6484 44.1864L22.7897 41.4229L20.0261 41.5619L7.26137 42.2039L16.723 33.7301L18.8011 31.869L16.7242 30.0066L7.26135 21.5204L20.0239 22.1736L22.7897 22.3152L22.6484 19.5493L21.9999 6.85366L30.5938 16.3041Z" fill="#FBBF24" stroke="black" stroke-width="5"/>
</svg>
